<svg width="1602" height="2431" viewBox="0 0 1602 2431" fill="none" xmlns="http://www.w3.org/2000/svg">
<rect x="362" y="221" width="844" height="1989" fill="#121212"/>
<path d="M217.328 638.702L527.415 595.78L339.314 352.538M167.156 820.181L774.379 712.084L423.054 222.458M190.683 732.515L626.611 646.518L380.335 290.372" stroke="#E0E0E0" stroke-opacity="0.6"/>
<path d="M356.73 2040.7L666.817 1997.78L478.716 1754.54M306.558 2222.18L913.781 2114.08L562.456 1624.46M330.085 2134.51L766.013 2048.52L519.737 1692.37" stroke="#E0E0E0" stroke-opacity="0.6"/>
<path d="M579.28 1353.49L602.605 1041.31L325.212 1173.99M746.128 1440.74L768.296 824.37L215.679 1064.74M665.38 1399.28L673.09 955.022L273.076 1120.8" stroke="#E0E0E0" stroke-opacity="0.6"/>
<path d="M801.747 417.569L874.5 1030L1207.75 179.569" stroke="#E0E0E0"/>
<path d="M855.047 480L927.8 1092.43L1261.05 242" stroke="#E0E0E0"/>
<path d="M444.893 1210.5L1059.65 716.96L465.393 23.3109" stroke="#E0E0E0"/>
<path d="M1163.17 754L633.095 1337.55L1328.45 1929.81" stroke="#E0E0E0"/>
<path d="M910.047 542L982.8 1154.43L1316.05 304" stroke="#E0E0E0"/>
<path d="M752.047 1524L824.8 2136.43L1158.05 1286" stroke="#E0E0E0"/>
<path d="M805.348 1586.43L878.101 2198.86L1211.35 1348.43" stroke="#E0E0E0"/>
<path d="M860.348 1648.43L933.101 2260.86L1266.35 1410.43" stroke="#E0E0E0"/>
<path d="M734.682 1864.83L652.957 1253.53L0.99981 1343.03" stroke="#E0E0E0"/>
<path d="M722.887 1720.53L1090.31 1225.18L821 1068" stroke="#E0E0E0"/>
</svg>
